<svg xmlns="http://www.w3.org/2000/svg" width="245.088" height="96.96" viewBox="0 0 245.088 96.96">
  <path id="Path_11" data-name="Path 11" d="M43.584,73.336,66.336,103H42.912L25.152,75.16H24.96V103H6.144V30.616H34.272q10.752.1,17.952,5.424t7.2,16.944a22.559,22.559,0,0,1-4.08,13.3,17.362,17.362,0,0,1-11.76,7.152ZM24.96,45.016V63.064h1.824a4.884,4.884,0,0,0,.96.1h.864a18.773,18.773,0,0,0,7.728-1.968q3.5-1.776,3.5-7.056,0-5.336-3.5-7.131a18.6,18.6,0,0,0-7.728-1.989H24.96ZM87.648,96.28,63.84,53.752H84L97.152,79l12.864-25.248h19.872L90.432,127.576H70.848ZM187.68,53.752V103H170.208V97.528h-.192a12.977,12.977,0,0,1-5.76,5.136,20.346,20.346,0,0,1-7.584,1.872,3.156,3.156,0,0,1-.768.1h-.768a22.871,22.871,0,0,1-17.9-7.824,27.9,27.9,0,0,1-.1-36.768,22.582,22.582,0,0,1,17.808-7.824h.96a4.884,4.884,0,0,1,.96.1,22.4,22.4,0,0,1,7.344,1.872,16.141,16.141,0,0,1,6,4.464v-4.9ZM159.552,67.288A10.813,10.813,0,0,0,151.3,70.7a11.322,11.322,0,0,0-2.976,7.824,11.055,11.055,0,0,0,2.976,7.872q2.976,3.168,8.256,3.168,5.376,0,8.3-3.181a11.234,11.234,0,0,0,2.928-7.907,11.505,11.505,0,0,0-2.928-7.858Q164.928,67.288,159.552,67.288Zm57.216-13.536v6.336h.192a17.322,17.322,0,0,1,6.864-6.144,21.24,21.24,0,0,1,8.88-1.728q9.984,0,14.256,5.664t4.272,14.784V103H233.76V76.12q0-.96-.1-1.92a12.026,12.026,0,0,0-1.728-5.52q-1.536-2.544-6.048-2.544-5.28,0-7.2,3.408a16.064,16.064,0,0,0-1.92,8.016V103H199.3V53.752Z" transform="translate(-6.144 -30.616)" fill="#f3f3f3"/>
</svg>
