<svg xmlns="http://www.w3.org/2000/svg" width="294.816" height="82.176" viewBox="0 0 294.816 82.176">
  <path id="Path_12" data-name="Path 12" d="M18.144,30.616,30.72,77.368h.192L46.08,30.616H61.056L75.264,77.368h.192L89.088,30.616h19.584L85.536,103h-19.2L53.664,61.048h-.192L39.264,103H20.16L-1.44,30.616Zm120.864,21.5a33.472,33.472,0,0,1,20.784,6.96q8.88,6.864,8.88,19.44,0,12.48-8.88,19.3a35.123,35.123,0,0,1-41.52.048q-8.928-6.768-8.928-19.344t8.88-19.44a33.01,33.01,0,0,1,20.784-6.864Zm0,15.168a10.813,10.813,0,0,0-8.256,3.408,11.322,11.322,0,0,0-2.976,7.824,11.055,11.055,0,0,0,2.976,7.872q2.976,3.168,8.256,3.168,5.376,0,8.3-3.181a11.234,11.234,0,0,0,2.928-7.907,11.505,11.505,0,0,0-2.928-7.858Q144.384,67.288,139.008,67.288ZM194.016,23.32V103H176.544V23.32Zm30.72,44.832V103H207.264V68.152H201.12v-14.4h6.144v-6.24a64.467,64.467,0,0,1,.384-7.3,16.828,16.828,0,0,1,2.208-6.528,18.443,18.443,0,0,1,1.056-1.68,19.288,19.288,0,0,1,1.344-1.68,21.849,21.849,0,0,1,7.728-5.856,22.712,22.712,0,0,1,9.456-2.016,18.6,18.6,0,0,1,3.84.384,14.041,14.041,0,0,1,3.648,1.344V39.16a5.021,5.021,0,0,1-.816-.288,4.329,4.329,0,0,0-.912-.288,10.985,10.985,0,0,0-2.112-.72,10.394,10.394,0,0,0-2.3-.24q-3.36,0-4.7,2.016t-1.344,6.24v7.872h12.192v14.4Zm68.64,11.328V81.3H256.608q0,5.376,2.784,8.208t8.16,2.832a10.512,10.512,0,0,0,4.848-1.056,8.834,8.834,0,0,0,3.5-3.456h16.8q-2.112,8.783-9.36,12.791a31.906,31.906,0,0,1-15.7,4.009q-12.192,0-20.352-6.672t-8.16-19.44q0-12.288,7.632-19.3T266.4,52.216q12.864,0,19.92,7.392t7.056,19.968ZM256.9,71.224h20.256a8.824,8.824,0,0,0-3.5-5.568,10.411,10.411,0,0,0-6.384-2.112,11.724,11.724,0,0,0-6.72,1.944A8.669,8.669,0,0,0,256.9,71.224Z" transform="translate(1.44 -22.456)" fill="#f3f3f3"/>
</svg>
