<svg class="illustration" width="1155" height="700" viewBox="0 0 1155 700" fill="none" xmlns="http://www.w3.org/2000/svg">
<path d="M402.375 349.155C403.327 349.978 412.325 348.469 416.705 347.611C416.399 346.625 416.095 345.63 415.857 344.7C411.062 345.752 401.186 348.127 402.375 349.155Z" fill="#4B5361"/>
<path d="M458.96 379.893C456.71 379.611 455.796 376.464 455.62 374.926C458.109 374.551 460.642 374.026 462.779 373.32C463.182 377.307 461.773 380.247 458.96 379.893Z" fill="#C4C4C4"/>
<path d="M417.51 350.288C418.417 353.567 422.636 352.174 425.058 351.177L424.253 346.763L423.609 343.235L422.704 338.271C421.173 338.639 419.459 339.499 416.488 340.049C415.07 340.311 415.24 342.289 415.857 344.701C416.095 345.631 416.4 346.626 416.705 347.612C416.99 348.532 417.276 349.444 417.51 350.288Z" fill="#C4C4C4"/>
<path d="M446.709 353.188L426.053 356.638L425.057 351.178L424.252 346.764L423.609 343.236L422.703 338.273L421.888 333.805L450.741 328.088L452.494 336.88C467.38 346.114 468.924 363.562 468.218 369.188C467.992 370.982 465.775 372.33 462.778 373.321C460.641 374.027 458.108 374.552 455.619 374.927C452.841 375.346 450.118 375.578 448.061 375.668L452.69 370.315C447.012 365.821 446.337 357.025 446.709 353.188Z" fill="#FFCB56"/>
<path fill-rule="evenodd" clip-rule="evenodd" d="M830.778 512.502L789.913 422.257C786.413 415.257 781.067 405.122 767.811 405.122C766.257 405.122 760.197 405.117 750.58 405.109C690.324 405.057 490.427 404.885 384.209 405.122C374.267 404.847 353.057 407.105 347.754 418.338C342.452 429.572 327.318 492.953 320.414 523.24C318.154 533.152 325.053 558.757 343.612 558.757H807.58C818.414 558.757 831.913 554.363 833.913 534.757C834.817 522.109 833.271 518.438 831.389 513.969L831.388 513.969C831.188 513.493 830.984 513.008 830.778 512.502Z" fill="#ffffff"/>
<path opacity="0.1" d="M789.913 422.257L830.778 512.502C832.913 517.757 834.913 520.762 833.913 534.758C831.913 554.363 818.414 558.758 807.58 558.758H343.612C325.053 558.758 318.154 533.152 320.414 523.24C327.318 492.953 342.452 429.572 347.754 418.338C353.057 407.105 374.267 404.847 384.209 405.122C507.381 404.847 756.524 405.122 767.811 405.122C781.067 405.122 786.413 415.257 789.913 422.257Z" fill="#F0EFEC"/>
<path opacity="0.8" d="M767.809 411.729C778.412 411.729 784.912 423.756 786.066 434.03C774.19 429.625 742.789 428.579 732.184 459.636C718.928 498.458 694.901 533.737 642.704 533.905C508.745 534.39 366.679 533.15 356.038 533.15C341.412 533.15 335.286 521.256 336.982 512.5C341.677 488.271 352.061 437.169 356.038 426.597C360.015 416.024 370.412 411.79 384.207 411.729C508.485 411.179 759.092 411.729 767.809 411.729Z" fill="#7FA6EA"/>
<path opacity="0.5" d="M795.98 487.72C800.413 496.256 808.407 494.603 813.378 494.328C815.588 498.733 820.835 510.187 824.149 520.76C827.463 531.333 812.274 533.425 804.265 533.15C760.229 533.404 702.278 533.69 642.705 533.905C694.901 533.737 718.928 498.458 732.185 459.636C742.79 428.579 774.191 429.625 786.066 434.03C781.968 434.938 775.014 435.256 777.656 444.256C781.913 458.756 793.359 482.675 795.98 487.72Z" fill="#EE7E79"/>
<path d="M496.678 500.5C493.478 494.9 498.011 485.167 500.678 481C493.178 486 488.678 497.5 491.678 503.5C494.678 509.5 500.678 507.5 496.678 500.5Z" fill="#A4C3FE"/>
<path d="M592.678 500.5C587.178 513 571.345 510.833 562.178 510.5C587.178 517.5 598.845 503.5 599.678 496C600.178 491.5 597.27 490.064 592.678 500.5Z" fill="#A4C3FE"/>
<path fill-rule="evenodd" clip-rule="evenodd" d="M506.553 116.996L517.852 116.871L584.178 459.644L571.449 455.462L556.127 374.353L480.028 382.927L495.512 474L484.214 471.254L422.178 114.125L433.476 114L444.867 175.33L518.757 178.144L506.553 116.996ZM520.287 189.403L446.424 186.585L461.682 273.573L536.69 269.256L520.287 189.403ZM478.471 371.672L463.239 284.829L538.22 280.515L554.597 363.094L478.471 371.672Z" fill="#E6EDFC"/>
<path d="M487.385 280.335L494.57 278.767C491.842 276.933 492.386 273.593 492.999 272.152L492.103 268.046L484.69 269.728L485.814 273.721C487.725 274.821 487.658 278.589 487.385 280.335Z" fill="#4B5361"/>
<path d="M496.249 286.751L494.569 278.768L487.385 280.337C487.102 284.932 490.203 294.865 504.869 297.836L505.786 296.244C502.713 295.397 496.502 292.312 496.249 286.751Z" fill="#DAE4FA"/>
<path d="M501.73 284.035C500.824 282.664 500.604 280.423 500.607 279.473C499.125 279.733 495.843 279.957 494.571 278.767L496.251 286.75C497.051 286.069 499.267 284.573 501.73 284.035Z" fill="#DAE4FA"/>
<path d="M500.607 279.474L523.084 274.879C522.85 276.161 523.531 277.799 524.309 279.106L501.729 284.037C500.823 282.666 500.603 280.424 500.607 279.474Z" fill="#4B5361"/>
<path d="M564.356 271.915C566.078 268.503 563.472 264.391 562.563 263.704L524.811 273.023C524.504 273.345 524.327 273.73 524.249 274.154C524.016 275.437 524.697 277.074 525.475 278.381C525.82 278.961 526.184 279.476 526.495 279.866L564.356 271.915Z" fill="#EE7E79"/>
<path d="M590.516 333.766C588.886 334.174 574.379 332.917 570.387 337.333C563.762 331.727 553.57 288.157 552.296 287.392C551.324 286.809 550.121 283.553 549.569 281.78C549.545 281.782 549.519 281.784 549.494 281.787C546.691 282.041 541.85 271.085 539.556 269.301C537.263 267.518 535.989 262.931 535.989 261.657C535.989 260.383 537.518 258.599 540.066 261.657C542.614 264.715 543.888 260.638 548.729 261.657C553.57 262.676 556.373 272.868 557.902 275.926C559.431 278.983 592.555 333.256 590.516 333.766Z" fill="#EDC7C5"/>
<path d="M525.288 393.389C523.453 391.758 529.619 376.233 532.932 368.674C526.731 367.4 512.242 364.852 503.884 364.852C493.437 364.852 481.207 353.131 481.207 351.857C481.207 350.583 479.678 343.448 478.914 340.9C478.149 338.352 479.678 330.453 475.092 331.218C470.505 331.982 473.563 343.958 472.034 344.977C470.505 345.996 464.645 342.939 461.078 343.958C457.511 344.977 458.785 346.761 458.275 348.29C455.727 350.073 459.039 353.131 457.001 354.66C455.37 355.883 455.812 358.057 456.237 358.991C455.812 360.01 455.217 362.609 456.237 364.852C457.511 367.654 461.842 365.361 464.645 367.909C467.448 370.457 472.799 369.183 476.621 371.731C480.188 378.356 527.581 395.428 525.288 393.389Z" fill="#EDC7C5"/>
<path fill-rule="evenodd" clip-rule="evenodd" d="M620.272 327.916C620.215 325.816 620.17 324.169 612.174 324.339C610.425 324.376 608.224 324.629 605.732 325.038C602.296 323.963 597.536 323.328 593.045 322.729C586.644 321.875 580.788 321.094 580.083 319.213C579.336 317.221 579.544 319.431 579.836 322.53L579.836 322.53V322.53L579.836 322.531C580.13 325.653 580.51 329.678 580.083 331.219C576.189 332.336 572.646 333.412 569.878 334.288C569.616 334.371 569.361 334.452 569.113 334.531C569.028 334.531 568.654 335.142 567.839 337.589C567.461 338.496 567.128 340.188 566.74 342.16C565.82 346.833 564.591 353.075 561.724 354.151C560.293 354.687 558.706 355.914 556.752 357.423C553.139 360.216 548.273 363.976 540.83 366.126C534.57 367.935 532.639 367.009 530.974 366.21C529.589 365.546 528.387 364.969 525.033 366.126C519.121 368.165 517.474 385.661 517.389 394.154C516.539 394.154 516.879 394.817 525.033 397.467C533.186 400.117 553.4 392.116 562.488 387.784C561.214 397.212 570.897 434.158 573.19 439.764C574.341 442.576 575.106 447.762 575.809 452.522C576.507 457.248 577.142 461.553 578.031 462.696C579.815 464.989 653.962 463.715 655.49 462.696C656.649 461.924 655.175 431.767 654.392 415.745L654.392 415.744L654.391 415.73C654.141 410.608 653.962 406.933 653.962 406.13C653.962 404.034 649.067 388.072 644.826 374.239C642.363 366.205 640.119 358.888 639.183 355.425C636.986 347.296 627.591 337.651 623.084 333.025C622.364 332.286 621.768 331.675 621.347 331.219C620.331 330.118 620.3 328.961 620.272 327.916ZM513.769 565.501H548.178V586.501H453.678V565.501H474.139L461.678 543.001L464.678 541.223L466.178 540.335L464.678 536.27L461.085 530.501H453.678V524.001H457.037L452.678 517.001C449.844 517.168 443.778 516.901 442.178 514.501C440.578 512.101 428.844 485.501 423.178 472.501L435.178 465.001L462.678 504.001C462.011 506.668 460.478 512.301 459.678 513.501L464.665 524.001H513.218L515.178 516.501C509.344 510.335 502.678 496.101 522.678 488.501L519.678 501.501L523.678 509.501L531.178 506.001L535.178 491.001C542.178 497.835 550.178 513.201 526.178 520.001L525.087 524.001H548.178V530.501H523.314L513.769 565.501ZM502.376 565.501L511.52 530.501H467.753L469.178 533.501L471.678 537.075L475.178 535.001L492.07 565.501H499.678H502.376Z" fill="#22a6b3"/>
<path d="M625.261 282.611C610.483 274.457 595.194 284.14 594.43 284.394C589.844 287.197 589.334 292.803 587.55 294.586C586.745 295.392 581.18 298.918 580.161 299.682C579.142 300.447 579.652 301.466 580.416 301.976C581.18 302.485 580.926 302.74 580.161 304.269C579.55 305.492 579.906 307.157 580.161 307.836C578.123 307.836 578.632 309.62 578.632 310.384C578.632 311.148 576.084 312.932 574.556 315.99C573.027 319.047 583.983 323.888 587.041 327.71C589.487 330.768 609.124 328.984 618.636 327.71C619.401 326.012 620.98 322.003 621.184 319.557C621.439 316.499 628.573 314.206 631.376 311.148C634.179 308.091 640.039 290.765 625.261 282.611Z" fill="#EDC7C5"/>
<path d="M572.934 382.431C568.041 384.878 562.742 388.037 560.703 389.311C560.703 392.623 567.073 432.372 570.895 438.997C574.717 445.622 575.227 457.597 575.482 458.871C575.736 460.145 581.597 459.381 583.635 459.381C594.337 459.891 653.96 469.063 656.763 462.693C659.566 456.323 656.253 406.383 655.234 401.796C654.215 397.21 643.513 359.244 640.965 353.384C638.417 347.524 632.259 331.091 621.302 325.995C610.346 320.899 599.389 323.702 604.231 324.211C609.072 324.721 614.721 337.077 624.148 341.154C642.239 357.206 633.321 374.787 627.461 383.96C621.6 393.133 607.077 401.032 591.279 398.484C578.641 396.445 573.783 386.933 572.934 382.431Z" fill="#B0A2A2"/>
<path d="M596.63 288.174C594.795 288.174 587.542 282.228 584.145 279.256C584.145 277.828 589.92 279.001 592.808 279.765C593.402 279.256 594.846 278.237 595.865 278.237C597.139 278.237 596.63 276.708 605.038 271.612C613.447 266.516 626.696 267.28 637.907 279.256C649.119 291.231 641.22 306.519 639.946 308.303C638.672 310.086 638.672 310.596 638.927 312.38C639.181 314.163 636.633 313.908 637.907 315.692C639.181 317.476 638.927 318.495 636.633 318.495C634.799 318.495 619.732 305.585 612.427 299.13C606.567 283.078 598.923 288.174 596.63 288.174Z" fill="#FFCB56"/>
<path opacity="0.2" d="M500.678 572L515.178 516.5C517.178 518.5 523.344 519.667 526.178 520L511.178 575L500.678 572Z" fill="#EE7E79"/>
<path d="M515.178 516.5C517.178 518.5 523.345 519.667 526.178 520C550.178 513.2 542.178 497.833 535.178 491L531.178 506L523.678 509.5L519.678 501.5L522.678 488.5C502.678 496.1 509.345 510.333 515.178 516.5Z" fill="#E6EDFC"/>
<path opacity="0.2" d="M479.678 575.5L461.678 543L464.678 541.222L466.178 540.333L471.678 537.074L475.178 535L493.178 567.5L479.678 575.5Z" fill="#EE7E79"/>
<path d="M469.178 533.5L471.678 537.074L466.178 540.333L464.678 536.269L452.678 517C449.844 517.167 443.778 516.9 442.178 514.5C440.578 512.1 428.844 485.5 423.178 472.5L435.178 465L462.678 504C462.011 506.667 460.478 512.3 459.678 513.5L469.178 533.5Z" fill="#E6EDFC"/>
<path fill-rule="evenodd" clip-rule="evenodd" d="M453.678 565.5V586.5H548.178V565.5H499.678H453.678ZM548.178 530.5V524H453.678V530.5H548.178Z" fill="#FFCB56"/>
</svg>